<mxfile host="app.diagrams.net" modified="2024-04-11T23:18:35.008Z" agent="Mozilla/5.0 (Windows NT 10.0; Win64; x64) AppleWebKit/537.36 (KHTML, like Gecko) Chrome/123.0.0.0 Safari/537.36" etag="AuUwCEg-WaRPaYX1fjhb" version="24.2.3" type="device">
  <diagram name="PÃ¡gina-1" id="T1myAYned2IHC3suXev3">
    <mxGraphModel dx="1114" dy="610" grid="1" gridSize="10" guides="1" tooltips="1" connect="1" arrows="1" fold="1" page="1" pageScale="1" pageWidth="827" pageHeight="1169" math="0" shadow="0">
      <root>
        <mxCell id="0" />
        <mxCell id="1" parent="0" />
        <mxCell id="1i9W_hhtYvbCAKF3Qy19-2" value="CLIENTE" style="shape=umlActor;verticalLabelPosition=bottom;verticalAlign=top;html=1;outlineConnect=0;" vertex="1" parent="1">
          <mxGeometry x="120" y="180" width="30" height="60" as="geometry" />
        </mxCell>
        <mxCell id="1i9W_hhtYvbCAKF3Qy19-11" style="edgeStyle=orthogonalEdgeStyle;rounded=0;orthogonalLoop=1;jettySize=auto;html=1;" edge="1" parent="1" source="1i9W_hhtYvbCAKF3Qy19-4" target="1i9W_hhtYvbCAKF3Qy19-5">
          <mxGeometry relative="1" as="geometry" />
        </mxCell>
        <mxCell id="1i9W_hhtYvbCAKF3Qy19-4" value="LOGIN" style="ellipse;whiteSpace=wrap;html=1;" vertex="1" parent="1">
          <mxGeometry x="294" y="160" width="120" height="80" as="geometry" />
        </mxCell>
        <mxCell id="1i9W_hhtYvbCAKF3Qy19-5" value="INFORMAR USUARIO E SENHA" style="ellipse;whiteSpace=wrap;html=1;" vertex="1" parent="1">
          <mxGeometry x="470" y="160" width="120" height="80" as="geometry" />
        </mxCell>
        <mxCell id="1i9W_hhtYvbCAKF3Qy19-6" value="USUARIO VALIDO" style="ellipse;whiteSpace=wrap;html=1;" vertex="1" parent="1">
          <mxGeometry x="380" y="310" width="120" height="80" as="geometry" />
        </mxCell>
        <mxCell id="1i9W_hhtYvbCAKF3Qy19-7" value="TENTE NOVAMENTE" style="ellipse;whiteSpace=wrap;html=1;" vertex="1" parent="1">
          <mxGeometry x="560" y="310" width="120" height="80" as="geometry" />
        </mxCell>
        <mxCell id="1i9W_hhtYvbCAKF3Qy19-10" value="" style="endArrow=none;html=1;rounded=0;entryX=0;entryY=0.613;entryDx=0;entryDy=0;entryPerimeter=0;" edge="1" parent="1" source="1i9W_hhtYvbCAKF3Qy19-2" target="1i9W_hhtYvbCAKF3Qy19-4">
          <mxGeometry width="50" height="50" relative="1" as="geometry">
            <mxPoint x="170" y="210" as="sourcePoint" />
            <mxPoint x="220" y="160" as="targetPoint" />
          </mxGeometry>
        </mxCell>
        <mxCell id="1i9W_hhtYvbCAKF3Qy19-12" value="&amp;lt;&amp;lt;extend&amp;gt;&amp;gt;" style="html=1;verticalAlign=bottom;labelBackgroundColor=none;endArrow=open;endFill=0;dashed=1;rounded=0;entryX=0.5;entryY=0;entryDx=0;entryDy=0;" edge="1" parent="1" target="1i9W_hhtYvbCAKF3Qy19-7">
          <mxGeometry width="160" relative="1" as="geometry">
            <mxPoint x="570" y="234.3" as="sourcePoint" />
            <mxPoint x="629.1302546743484" y="300.00028297149817" as="targetPoint" />
          </mxGeometry>
        </mxCell>
        <mxCell id="1i9W_hhtYvbCAKF3Qy19-13" value="&amp;lt;&amp;lt;extend&amp;gt;&amp;gt;" style="html=1;verticalAlign=bottom;labelBackgroundColor=none;endArrow=open;endFill=0;dashed=1;rounded=0;entryX=0.5;entryY=0;entryDx=0;entryDy=0;" edge="1" parent="1" target="1i9W_hhtYvbCAKF3Qy19-6">
          <mxGeometry width="160" relative="1" as="geometry">
            <mxPoint x="490" y="227.31" as="sourcePoint" />
            <mxPoint x="522.743295681403" y="300.0001164127148" as="targetPoint" />
          </mxGeometry>
        </mxCell>
      </root>
    </mxGraphModel>
  </diagram>
</mxfile>
